PathFileType	4	(X/Y/Z)	/Users/itak/Documents/Research/Walk-IL/dataset/trc/00266_00009.trc
DataRate	CameraRate	NumFrames	NumMarkers	Units	OrigDataRate	OrigDataStartFrame	OrigNumFrames
100.000000	100.000000	4	54	mm	100.000000	368	421
Frame#	Time	RPSI			LPSI			L3			STRN			T10			C7			CLAV			RBAK			LBAK			LSHO			LUPA			LAEL			LAOL			LWTS			LWPS			LFRA			LIFD			LHPS			LHTS			RSHO			RUPA			RAEL			RAOL			RWPS			RFRA			RIFD			RHTS			RHPS			RBHD			LFHD			RFHD			LBHD			LHIP			RHIP			RASI			LASI			LKNE			LTHI			LANK			LTIP			LTOE			LMT1			LMT5			LHEE			RKNE			RTHI			RANK			RTIP			RTOE			RMT1			RMT5			RWTS			RHEE			*53			
		X1	Y1	Z1	X2	Y2	Z2	X3	Y3	Z3	X4	Y4	Z4	X5	Y5	Z5	X6	Y6	Z6	X7	Y7	Z7	X8	Y8	Z8	X9	Y9	Z9	X10	Y10	Z10	X11	Y11	Z11	X12	Y12	Z12	X13	Y13	Z13	X14	Y14	Z14	X15	Y15	Z15	X16	Y16	Z16	X17	Y17	Z17	X18	Y18	Z18	X19	Y19	Z19	X20	Y20	Z20	X21	Y21	Z21	X22	Y22	Z22	X23	Y23	Z23	X24	Y24	Z24	X25	Y25	Z25	X26	Y26	Z26	X27	Y27	Z27	X28	Y28	Z28	X29	Y29	Z29	X30	Y30	Z30	X31	Y31	Z31	X32	Y32	Z32	X33	Y33	Z33	X34	Y34	Z34	X35	Y35	Z35	X36	Y36	Z36	X37	Y37	Z37	X38	Y38	Z38	X39	Y39	Z39	X40	Y40	Z40	X41	Y41	Z41	X42	Y42	Z42	X43	Y43	Z43	X44	Y44	Z44	X45	Y45	Z45	X46	Y46	Z46	X47	Y47	Z47	X48	Y48	Z48	X49	Y49	Z49	X50	Y50	Z50	X51	Y51	Z51	X52	Y52	Z52	X53	Y53	Z53	X54	Y54	Z54	

369	3.68	-75.01531982421875	1042.60546875	-362.9671630859375	-195.6997833251953	1048.257446289062	-370.1405944824219	-154.3147583007812	1126.812133789062	-362.1242065429688	-146.8071746826172	1314.403686523438	-613.9581909179688	-149.8517913818359	1252.623046875	-359.0624084472656	-154.4264068603516	1515.214965820312	-422.351806640625	-146.1326599121094	1431.838256835938	-588.0932006835938	-82.09358978271484	1375.675537109375	-346.7848815917969	-265.9291687011719	1476.77197265625	-407.6260986328125	-316.6746520996094	1477.33056640625	-499.4236755371094	-398.0969848632812	1360.177490234375	-476.5338439941406	-435.0620727539062	1152.168701171875	-496.0773315429688	-387.1457824707031	1128.735107421875	-425.7079162597656	-380.9040222167969	932.19970703125	-616.545654296875	-460.7993774414062	911.7469482421875	-591.46044921875	-452.5953674316406	1048.044799804688	-529.304443359375	-391.00244140625	740.6498413085938	-655.0982666015625	-455.4200439453125	827.078857421875	-622.4299926757812	-402.8663940429688	838.7736206054688	-664.3938598632812	17.27329063415527	1476.33251953125	-475.8739013671875	83.36258697509766	1411.85546875	-456.4751892089844	130.6185760498047	1131.735595703125	-436.5399780273438	41.56658935546875	1123.10693359375	-403.8664855957031	151.6982421875	906.2335815429688	-531.0744018554688	143.5321502685547	1063.806640625	-465.4961547851562	76.68431854248047	732.0111694335938	-607.8378295898438	96.8720703125	805.5078125	-628.5065307617188	150.1915435791016	801.1802978515625	-578.655029296875	-106.8569946289062	1666.328857421875	-454.7861328125	-185.3984069824219	1723.893310546875	-660.4653930664062	-85.15151214599609	1723.19921875	-651.3353271484375	-235.7459106445312	1676.437622070312	-511.0743713378906	-332.3504333496094	987.8270263671875	-477.933837890625	35.64760208129883	1005.862182617188	-457.3954162597656	nan	nan	nan	-278.7754821777344	1029.965087890625	-575.926025390625	-272.0238647460938	506.7912292480469	-540.6080932617188	-302.6871643066406	649.5363159179688	-529.850830078125	-239.7748107910156	32.50962448120117	-467.3548278808594	-264.7148132324219	278.4111328125	-499.7803649902344	-173.8849487304688	38.86541366577148	-681.130859375	-134.5675659179688	35.23523330688477	-609.016357421875	-251.9243011474609	34.62163925170898	-595.7492065429688	-190.2687225341797	37.50061416625977	-404.1425476074219	8.17180347442627	520.1859130859375	-556.1559448242188	47.96020126342773	786.8544311523438	-534.7569580078125	-14.40474700927734	33.18558883666992	-460.6487121582031	-6.397627353668213	399.5524291992188	-560.8970947265625	-48.56128692626953	40.58766555786133	-672.8577270507812	-93.52263641357422	36.40372848510742	-619.0771484375	16.64110374450684	35.77983093261719	-569.2612915039062	86.15003204345703	923.4217529296875	-581.4579467773438	-73.34567260742188	30.6860408782959	-400.6507568359375	nan	nan	nan	
370	3.69	-74.21741485595703	1042.778198242188	-364.701171875	-194.7078247070312	1048.40625	-371.7291564941406	-153.4121551513672	1126.79345703125	-363.7139282226562	-146.1141967773438	1314.724365234375	-615.1009521484375	-148.7493286132812	1252.545654296875	-360.2555541992188	-153.5190582275391	1515.268310546875	-423.1968078613281	-145.4470825195312	1432.126831054688	-589.0790405273438	-81.08321380615234	1375.61962890625	-347.9342651367188	-264.9666137695312	1476.772216796875	-408.31591796875	-315.94482421875	1477.359130859375	-499.9954223632812	-397.0890502929688	1360.02783203125	-476.7123718261719	-433.6990661621094	1151.91162109375	-495.5755310058594	-385.24609375	1128.586791992188	-425.3772583007812	-380.4286499023438	930.8134765625	-614.5162353515625	-460.0298767089844	910.7201538085938	-588.8419189453125	-451.4063720703125	1047.54443359375	-527.9216918945312	-390.7616271972656	738.8221435546875	-650.8689575195312	-454.9352111816406	825.693359375	-618.91796875	-402.5757446289062	836.8264770507812	-661.2425537109375	18.08983612060547	1476.497192382812	-476.9957580566406	84.27831268310547	1412.068115234375	-457.7239990234375	131.5146789550781	1131.903564453125	-438.0778503417969	42.49541473388672	1123.282958984375	-405.2664184570312	152.5118103027344	906.3328247070312	-532.400634765625	144.3889617919922	1063.982177734375	-467.0151977539062	77.41981506347656	731.8828735351562	-608.61279296875	97.43574523925781	805.3721313476562	-629.5144653320312	151.0723724365234	801.2949829101562	-579.7623291015625	-106.2067031860352	1666.421508789062	-455.3482971191406	-184.6560211181641	1724.340576171875	-660.9522705078125	-84.45179748535156	1723.642822265625	-651.7555541992188	-235.0907897949219	1676.581298828125	-511.6768798828125	-331.7660217285156	987.740966796875	-479.3112487792969	36.56719970703125	1006.08642578125	-459.0719604492188	nan	nan	nan	-277.8935546875	1030.17529296875	-577.5028076171875	-271.4779052734375	506.7782287597656	-540.9234008789062	-302.1927185058594	649.5631103515625	-530.68212890625	-239.7516632080078	32.53599166870117	-467.3614196777344	-264.5989379882812	278.5481262207031	-499.8755493164062	-173.8875885009766	38.89241027832031	-681.1033935546875	-134.5572967529297	35.2413215637207	-609.0146484375	-251.9110107421875	34.63106918334961	-595.7508544921875	-190.2563018798828	37.5263786315918	-404.1403198242188	8.120724678039551	519.8796997070312	-555.3509521484375	48.70221328735352	786.85107421875	-535.6697998046875	-14.67214965820312	33.1329460144043	-460.71240234375	-6.672765731811523	399.3919067382812	-560.1015625	-48.65927505493164	40.45551300048828	-672.9654541015625	-93.73110961914062	36.18614959716797	-619.1350708007812	16.51786994934082	36.15900421142578	-569.4929809570312	86.82546234130859	923.3615112304688	-582.6348266601562	-73.64564514160156	30.45672225952148	-400.7301025390625	nan	nan	nan	
371	3.7	-73.47701263427734	1042.993286132812	-366.4104309082031	-193.7433776855469	1048.585083007812	-373.2950744628906	-152.5485382080078	1126.791015625	-365.2810363769531	-145.4145965576172	1315.055786132812	-616.2243041992188	-147.6835327148438	1252.49267578125	-361.4483337402344	-152.6106109619141	1515.341186523438	-424.0292358398438	-144.7461242675781	1432.428344726562	-590.0468139648438	-80.08328247070312	1375.582641601562	-349.0583801269531	-263.9928588867188	1476.798583984375	-409.0043640136719	-315.2184143066406	1477.423461914062	-500.579345703125	-396.0832824707031	1359.929077148438	-476.8855590820312	-432.3362731933594	1151.68603515625	-494.9754333496094	-383.3424987792969	1128.560424804688	-425.0113525390625	-379.9995422363281	929.4937133789062	-612.39111328125	-459.2598571777344	909.7450561523438	-586.0951538085938	-450.1986083984375	1047.0888671875	-526.4182739257812	-390.5179748535156	737.0518188476562	-646.4981079101562	-454.4547119140625	824.3663330078125	-615.25439453125	-402.3173217773438	834.9305419921875	-657.9619750976562	18.90496826171875	1476.670776367188	-478.083984375	85.19185638427734	1412.291015625	-458.9335632324219	132.4241790771484	1132.097290039062	-439.5871887207031	43.44992446899414	1123.462158203125	-406.6329345703125	153.3946075439453	906.4667358398438	-533.6958618164062	145.2727661132812	1064.18359375	-468.5030212402344	78.25077056884766	731.7588500976562	-609.3566284179688	98.09954071044922	805.2522583007812	-630.48779296875	152.0306243896484	801.42138671875	-580.8399658203125	-105.550910949707	1666.516479492188	-455.8822021484375	-183.8567657470703	1724.8232421875	-661.403076171875	-83.72050476074219	1724.113037109375	-652.130126953125	-234.4093933105469	1676.73779296875	-512.2523193359375	-331.2000122070312	987.6268920898438	-480.6110534667969	37.48690032958984	1006.355346679688	-460.6775207519531	nan	nan	nan	-277.0004577636719	1030.368530273438	-579.0669555664062	-270.8997192382812	506.7584228515625	-541.1549682617188	-301.6731262207031	649.5819091796875	-531.4469604492188	-239.7301177978516	32.56393432617188	-467.3673400878906	-264.4720458984375	278.6924133300781	-499.911376953125	-173.8897857666016	38.9207763671875	-681.072509765625	-134.5453948974609	35.24480056762695	-609.0117797851562	-251.8959197998047	34.64335250854492	-595.7523803710938	-190.2401123046875	37.55049133300781	-404.1371154785156	8.16105842590332	519.6215209960938	-554.5057373046875	49.40398788452148	786.8876342773438	-536.5787963867188	-14.86385726928711	33.07576751708984	-460.7537536621094	-6.869955539703369	399.2872619628906	-559.2601318359375	-48.72618865966797	40.39950561523438	-673.0327758789062	-93.90007019042969	36.05021667480469	-619.1614379882812	16.42452049255371	36.45503616333008	-569.6896362304688	87.56667327880859	923.3162231445312	-583.7896118164062	-73.87371063232422	30.23712348937988	-400.7660217285156	nan	nan	nan	
372	3.71	-72.75972747802734	1043.241577148438	-368.0750427246094	-192.8168182373047	1048.787963867188	-374.8377990722656	-151.7038879394531	1126.79931640625	-366.8111572265625	-144.7120056152344	1315.387939453125	-617.3273315429688	-146.6553192138672	1252.457153320312	-362.6402282714844	-151.7048797607422	1515.427124023438	-424.8513793945312	-144.0308380126953	1432.7333984375	-590.9954833984375	-79.09636688232422	1375.557495117188	-350.1549377441406	-263.0105590820312	1476.844360351562	-409.6927795410156	-314.495361328125	1477.514404296875	-501.1788024902344	-395.0905151367188	1359.869873046875	-477.0648498535156	-430.9839782714844	1151.484252929688	-494.2881774902344	-381.4592590332031	1128.668090820312	-424.60546875	-379.6000671386719	928.2376708984375	-610.1846923828125	-458.4966430664062	908.8164672851562	-583.23876953125	-448.979736328125	1046.673095703125	-524.8090209960938	-390.2750549316406	735.3438720703125	-642.0165405273438	-453.9875183105469	823.0964965820312	-611.4686889648438	-402.0824279785156	833.0917358398438	-654.57421875	19.72000122070312	1476.847290039062	-479.1357421875	86.09803771972656	1412.514526367188	-460.1025695800781	133.3500213623047	1132.303833007812	-441.0630493164062	44.4278450012207	1123.635620117188	-407.9671936035156	154.3462982177734	906.622314453125	-534.962158203125	146.1858215332031	1064.397094726562	-469.9556884765625	79.17271423339844	731.6426391601562	-610.08740234375	98.86930084228516	805.1459350585938	-631.43701171875	153.0464782714844	801.5407104492188	-581.9025268554688	-104.889289855957	1666.600830078125	-456.3912658691406	-183.0078887939453	1725.330200195312	-661.8199462890625	-82.95744323730469	1724.602172851562	-652.466064453125	-233.7001800537109	1676.901489257812	-512.8018188476562	-330.6019592285156	987.527587890625	-481.8504028320312	38.389404296875	1006.648376464844	-462.2233581542969	nan	nan	nan	-276.1078186035156	1030.536987304688	-580.6141357421875	-270.2993774414062	506.7256469726562	-541.299560546875	-301.1092224121094	649.58642578125	-532.1321411132812	-239.7097015380859	32.59245681762695	-467.371337890625	-264.32373046875	278.844482421875	-499.88427734375	-173.8922119140625	38.95069885253906	-681.0381469726562	-134.5320434570312	35.24540328979492	-609.0075073242188	-251.8788909912109	34.65815353393555	-595.7531127929688	-190.2167510986328	37.57049560546875	-404.1311950683594	8.305790901184082	519.4037475585938	-553.6135864257812	50.06878280639648	786.944091796875	-537.4658813476562	-14.97648811340332	33.01045989990234	-460.7659912109375	-6.972846508026123	399.2278747558594	-558.381591796875	-48.76952743530273	40.38153839111328	-673.071044921875	-94.02510833740234	35.97212600708008	-619.1661987304688	16.36352348327637	36.65573883056641	-569.8380737304688	88.37386322021484	923.2816162109375	-584.9266357421875	-74.02013397216797	30.02638244628906	-400.7697143554688	nan	nan	nan	
